<svg xmlns="http://www.w3.org/2000/svg" version="1.1" xmlns:xlink="http://www.w3.org/1999/xlink" xmlns:svgjs="http://svgjs.com/svgjs" width="1440" height="250" preserveAspectRatio="none" viewBox="0 0 1440 250"><g mask="url(&quot;#SvgjsMask1054&quot;)" fill="none"><rect width="1440" height="250" x="0" y="0" fill="rgba(202, 240, 248, 1)"></rect><path d="M26 250L276 0L624 0L374 250z" fill="url(#SvgjsLinearGradient1055)"></path><path d="M253.60000000000002 250L503.6 0L823.1 0L573.1 250z" fill="url(#SvgjsLinearGradient1055)"></path><path d="M500.20000000000005 250L750.2 0L819.2 0L569.2 250z" fill="url(#SvgjsLinearGradient1055)"></path><path d="M725.8000000000001 250L975.8000000000001 0L1263.8000000000002 0L1013.8000000000001 250z" fill="url(#SvgjsLinearGradient1055)"></path><path d="M1423 250L1173 0L1017 0L1267 250z" fill="url(#SvgjsLinearGradient1056)"></path><path d="M1182.4 250L932.4000000000001 0L602.4000000000001 0L852.4000000000001 250z" fill="url(#SvgjsLinearGradient1056)"></path><path d="M951.8 250L701.8 0L395.79999999999995 0L645.8 250z" fill="url(#SvgjsLinearGradient1056)"></path><path d="M698.1999999999999 250L448.19999999999993 0L319.19999999999993 0L569.1999999999999 250z" fill="url(#SvgjsLinearGradient1056)"></path><path d="M1304.8656043574936 250L1440 114.86560435749351L1440 250z" fill="url(#SvgjsLinearGradient1055)"></path><path d="M0 250L135.1343956425065 250L 0 114.86560435749351z" fill="url(#SvgjsLinearGradient1056)"></path></g><defs><mask id="SvgjsMask1054"><rect width="1440" height="250" fill="#ffffff"></rect></mask><linearGradient x1="0%" y1="100%" x2="100%" y2="0%" id="SvgjsLinearGradient1055"><stop stop-color="rgba(106, 148, 224, 1)" offset="0"></stop><stop stop-opacity="0" stop-color="rgba(106, 148, 224, 1)" offset="0.66"></stop></linearGradient><linearGradient x1="100%" y1="100%" x2="0%" y2="0%" id="SvgjsLinearGradient1056"><stop stop-color="rgba(106, 148, 224, 1)" offset="0"></stop><stop stop-opacity="0" stop-color="rgba(106, 148, 224, 1)" offset="0.66"></stop></linearGradient></defs></svg>